HIERARCHY
ROOT hip
{
	OFFSET 0.000000 0.000000 0.000000 
	CHANNELS 6 Xposition Yposition Zposition Xrotation Zrotation Yrotation
	JOINT abdomen
	{
		OFFSET 0.000000 3.402643 0.000000 
		CHANNELS 3 Xrotation Zrotation Yrotation
		JOINT chest
		{
			OFFSET 0.000000 8.438565 -0.680529 
			CHANNELS 3 Xrotation Zrotation Yrotation
			JOINT neck
			{
				OFFSET 0.000000 10.207942 -0.272212 
				CHANNELS 3 Xrotation Zrotation Yrotation
				JOINT head
				{
					OFFSET 0.000000 3.130431 0.000000 
					CHANNELS 3 Xrotation Zrotation Yrotation
					End Site
					{
						OFFSET 0.000000 3.130435 0.000000 
					}
				}
			}
			JOINT lCollar
			{
				OFFSET 3.470700 6.669187 -0.816635 
				CHANNELS 3 Yrotation Zrotation Xrotation
				JOINT lShldr
				{
					OFFSET 3.198488 0.000000 0.000000 
					CHANNELS 3 Zrotation Yrotation Xrotation
					JOINT lForeArm
					{
						OFFSET 10.139888 0.000000 0.000000 
						CHANNELS 3 Yrotation Zrotation Xrotation
						JOINT lHand
						{
							OFFSET 8.370511 0.000000 0.000000 
							CHANNELS 3 Zrotation Yrotation Xrotation
							End Site
							{
								OFFSET 4.083176 0.000000 0.000000 
							}
						}
					}
				}
			}
			JOINT rCollar
			{
				OFFSET -3.470700 6.669187 -0.816635 
				CHANNELS 3 Yrotation Zrotation Xrotation
				JOINT rShldr
				{
					OFFSET -3.198488 0.000000 0.000000 
					CHANNELS 3 Zrotation Yrotation Xrotation
					JOINT rForeArm
					{
						OFFSET -10.139888 0.000000 0.000000 
						CHANNELS 3 Yrotation Zrotation Xrotation
						JOINT rHand
						{
							OFFSET -8.370511 0.000000 0.000000 
							CHANNELS 3 Zrotation Yrotation Xrotation
							End Site
							{
								OFFSET -4.083176 0.000000 0.000000 
							}
						}
					}
				}
			}
		}
	}
	JOINT lThigh
	{
		OFFSET 5.308129 -1.633274 1.361059 
		CHANNELS 3 Xrotation Zrotation Yrotation
		JOINT lShin
		{
			OFFSET -2.041588 -20.007561 0.000000 
			CHANNELS 3 Xrotation Zrotation Yrotation
			JOINT lFoot
			{
				OFFSET 0.000000 -19.190928 -1.224953 
				CHANNELS 3 Xrotation Yrotation Zrotation
				End Site
				{
					OFFSET 0.000000 -2.449906 4.627600 
				}
			}
		}
	}
	JOINT rThigh
	{
		OFFSET -5.308129 -1.633274 1.361059 
		CHANNELS 3 Xrotation Zrotation Yrotation
		JOINT rShin
		{
			OFFSET 2.041588 -20.007561 0.000000 
			CHANNELS 3 Xrotation Zrotation Yrotation
			JOINT rFoot
			{
				OFFSET 0.000000 -19.190928 -1.224953 
				CHANNELS 3 Xrotation Yrotation Zrotation
				End Site
				{
					OFFSET 0.000000 -2.449906 4.627600 
				}
			}
		}
	}
}
MOTION
Frames: 20
Frame Time: 0.200000
0.000000 53.498543 0.305648 0.000000 0.000000 0.000000 9.106555 0.144284 -0.066094 0.000000 0.000000 0.788449 0.000000 0.000000 0.000000 1.168936 -4.800035 -0.484316 2.660398 -4.076180 0.060281 -26.368853 30.790571 28.130701 -17.744514 -5.602814 -0.367408 6.557246 0.765604 1.585196 -2.354630 4.036441 0.005109 23.302286 -37.184597 26.490179 21.392033 7.851481 -0.055602 -2.665675 1.306803 0.416554 -7.566068 4.016834 0.123539 15.889325 -3.338352 -0.812407 -8.623845 1.045459 -0.888786 -7.541373 -4.332107 0.099885 15.824707 3.315346 0.622567 -8.665869 -1.560564 0.936763 
-0.004954 53.496967 0.302674 0.000000 0.000000 0.000000 7.726855 0.052207 -0.273501 0.000000 0.000000 2.106872 0.000000 0.000000 0.000000 2.673365 -11.229746 -1.213014 3.438372 -2.084555 0.212699 -11.970211 28.318460 35.124035 -11.830391 -1.000201 -0.932675 7.712957 1.785904 3.512189 -2.779857 2.000031 0.092426 7.104306 -30.062712 20.560280 20.079556 4.764745 -0.330893 0.281741 2.064726 0.710662 -7.605320 4.017209 0.115836 15.882868 -3.343401 -0.810033 -8.609694 1.048196 -0.890369 -7.566207 -4.327027 0.097883 15.811936 3.306115 0.623272 -8.678014 -1.563186 0.936656 
-0.016017 53.493439 0.296034 0.000000 0.000000 0.000000 6.251555 -0.045123 -0.452488 0.000000 0.000000 3.925959 0.000000 0.000000 0.000000 4.187335 -17.540308 -1.879466 4.249507 -0.024920 0.370407 2.442454 25.468740 42.341412 -5.733534 3.734629 -1.564130 9.385700 2.774984 5.802399 -3.209744 -0.108940 0.180817 -9.315477 -22.438940 14.516801 18.662651 1.647244 -0.589469 3.995764 3.295339 0.961405 -7.662928 4.017725 0.104467 15.871525 -3.350818 -0.806399 -8.587704 1.052348 -0.892710 -7.602887 -4.319525 0.094926 15.793065 3.292475 0.624314 -8.695951 -1.567058 0.936499 
-0.032544 53.488171 0.286113 0.000000 0.000000 0.000000 4.650368 -0.145620 -0.451544 0.000000 0.000000 6.149848 0.000000 0.000000 0.000000 5.398471 -21.813375 -2.088481 5.034121 1.888923 0.517354 13.597576 21.433453 48.986839 -0.156119 8.018970 -2.371330 11.392543 3.753997 8.337655 -3.562973 -2.082378 0.254007 -23.028057 -14.126261 9.313909 17.063320 -0.900917 -0.706834 8.074500 4.731393 1.199972 -7.728678 4.018305 0.091473 15.858087 -3.359285 -0.802212 -8.562284 1.057124 -0.895386 -7.644810 -4.310950 0.091547 15.771498 3.276885 0.625505 -8.716454 -1.571484 0.936320 
-0.053892 53.481365 0.273298 0.000000 0.000000 0.000000 2.893002 -0.247194 -0.119155 0.000000 0.000000 8.682676 0.000000 0.000000 0.000000 5.994396 -22.130610 -1.444872 5.732531 3.443171 0.637486 18.223579 15.404631 54.264317 4.199677 11.270122 -3.463835 13.550546 4.744096 10.999782 -3.758228 -3.712190 0.295722 -31.104418 -4.937651 5.905771 15.203559 -2.279629 -0.558493 12.116047 6.105639 1.457554 -7.792360 4.018872 0.078898 15.845346 -3.367484 -0.798179 -8.537843 1.061728 -0.897975 -7.685375 -4.302653 0.088278 15.750624 3.261796 0.626657 -8.736293 -1.575766 0.936146 
-0.079418 53.473228 0.257975 0.000000 0.000000 0.000000 0.982736 -0.346281 0.615047 0.000000 0.000000 11.428580 0.000000 0.000000 0.000000 5.757579 -17.210323 0.281844 6.297491 4.471786 0.718326 14.082574 6.889299 57.476757 6.775722 13.051931 -4.915104 15.676778 5.766438 13.670609 -3.735332 -4.834780 0.293624 -31.405947 5.183415 4.975828 13.050895 -2.083183 -0.070194 15.718512 7.150829 1.765341 -7.843764 4.019349 0.068783 15.836101 -3.374100 -0.795006 -8.518795 1.065370 -0.900055 -7.717980 -4.295983 0.085650 15.733842 3.249667 0.627584 -8.752242 -1.579209 0.936006 
-0.108482 53.463966 0.240529 0.000000 0.000000 0.000000 -0.942909 -0.433403 1.496857 0.000000 0.000000 14.291698 0.000000 0.000000 0.000000 4.849871 -8.317495 2.663304 6.731490 4.999796 0.761694 3.071351 -3.345595 58.322758 7.590071 13.514446 -6.654195 17.588303 6.842176 16.231960 -3.518662 -5.464538 0.251128 -24.955603 15.771509 6.124587 10.754963 -0.683452 0.631351 18.479990 7.599712 2.154522 -7.872675 4.019658 0.063173 15.833136 -3.377813 -0.793401 -8.509547 1.067255 -0.901206 -7.736027 -4.292291 0.084195 15.724550 3.242952 0.628097 -8.761069 -1.581114 0.935929 
-0.140439 53.453777 0.221346 0.000000 0.000000 0.000000 -2.712847 -0.497605 2.190924 0.000000 0.000000 17.176170 0.000000 0.000000 0.000000 3.527965 2.646240 5.106441 7.049452 5.099993 0.772985 -11.879620 -14.218111 56.599823 6.804827 12.954262 -8.574064 19.102180 7.992463 18.565660 -3.153737 -5.660353 0.175584 -13.566747 26.230698 8.681813 8.510926 1.353289 1.369182 19.998587 7.185040 2.656289 -7.868884 4.019722 0.064110 15.839251 -3.377307 -0.794069 -8.514512 1.066591 -0.901004 -7.732916 -4.292928 0.084446 15.726147 3.244106 0.628009 -8.759546 -1.580786 0.935942 
-0.174646 53.442875 0.200811 0.000000 0.000000 0.000000 -4.155996 -0.527931 2.361901 0.000000 0.000000 19.986130 0.000000 0.000000 0.000000 2.048554 13.779238 7.018185 7.266302 4.845170 0.757595 -27.839861 -24.646309 52.105450 4.582096 11.667981 -10.567670 20.035480 9.238451 20.553537 -2.686072 -5.481109 0.074344 0.947272 35.965065 11.977276 6.513944 3.460767 1.966345 19.872402 5.639565 3.301830 -7.822179 4.019465 0.073636 15.857238 -3.371266 -0.797717 -8.538098 1.062584 -0.899028 -7.702043 -4.299243 0.086934 15.742027 3.255585 0.627132 -8.744448 -1.577526 0.936075 
-0.210462 53.431461 0.179311 0.000000 0.000000 0.000000 -5.101269 -0.513428 1.674435 0.000000 0.000000 22.625723 0.000000 0.000000 0.000000 0.668332 23.179871 7.805466 7.396963 4.308119 0.720920 -41.878929 -33.548275 44.637138 1.083978 9.952202 -12.527973 20.205269 10.601298 22.077421 -2.161186 -4.985693 -0.045242 16.773102 44.378685 15.340742 4.959176 5.072710 2.245883 17.699543 2.696037 4.122337 -7.722350 4.018811 0.093794 15.889892 -3.358372 -0.805052 -8.584718 1.054442 -0.894856 -7.636809 -4.312586 0.092192 15.775589 3.279845 0.625279 -8.712544 -1.570639 0.936354 
-0.247245 53.419735 0.157231 0.000000 0.000000 0.000000 -5.377580 -0.443139 -0.206821 0.000000 0.000000 24.999081 0.000000 0.000000 0.000000 -0.356005 28.946482 6.875216 7.456359 3.561635 0.668353 -51.066322 -39.842045 33.992420 -3.527418 8.103526 -14.347929 19.428614 12.102157 23.019135 -1.624595 -4.232992 -0.175822 32.097382 50.875641 18.101984 4.041784 5.622847 2.030839 13.078103 -1.912796 5.149000 -7.559183 4.017682 0.126628 15.940003 -3.337308 -0.816781 -8.658781 1.041372 -0.888067 -7.530616 -4.334307 0.100752 15.830232 3.319340 0.622262 -8.660608 -1.559428 0.936809 
-0.284350 53.407906 0.134958 0.000000 0.000000 0.000000 -4.878956 -0.311347 -3.398150 0.000000 0.000000 27.010342 0.000000 0.000000 0.000000 -0.837664 29.725775 3.946440 7.459415 2.678509 0.605291 -53.751938 -42.740898 20.627359 -9.089996 6.418550 -15.920499 17.522575 13.762183 23.260508 -1.121816 -3.281893 -0.310044 45.388477 54.941013 19.712271 3.930153 4.805079 1.174912 6.304765 -8.091787 6.257994 -7.327812 4.016042 0.173110 16.008877 -3.307447 -0.833238 -8.762373 1.022998 -0.878460 -7.379307 -4.365256 0.112947 15.907910 3.375458 0.617990 -8.586609 -1.543455 0.937457 
-0.321135 53.396179 0.112876 0.000000 0.000000 0.000000 -3.759855 -0.133278 -7.139557 0.000000 0.000000 28.563641 0.000000 0.000000 0.000000 -0.869450 26.357794 -0.013527 7.421056 1.731536 0.537128 -53.407043 -42.638870 7.632279 -15.441644 5.193875 -17.138639 14.304221 15.602527 22.683367 -0.698367 -2.191284 -0.440558 56.241653 56.383865 20.108883 4.685561 3.354013 -0.345585 0.470482 -14.296253 6.705439 -7.044719 4.014010 0.229937 16.091827 -3.270913 -0.853269 -8.888257 1.000611 -0.866716 -7.188519 -4.404280 0.128325 16.004839 3.445311 0.612756 -8.493304 -1.523313 0.938275 
-0.356957 53.384762 0.091372 0.000000 0.000000 0.000000 -2.239846 0.070602 -10.451982 0.000000 0.000000 29.563116 0.000000 0.000000 0.000000 -0.614070 20.230917 -3.725280 7.356204 0.793506 0.469260 -54.783272 -40.225201 -1.243880 -22.420267 4.726099 -17.895308 9.590614 17.644346 21.169540 -0.399765 -1.020052 -0.560012 64.533875 55.094250 19.350607 6.342509 2.264435 -2.523679 -0.635210 -18.619106 5.592441 -6.731735 4.011748 0.292733 16.182690 -3.230525 -0.875347 -9.026876 0.975923 -0.853741 -6.966337 -4.449725 0.146233 16.115797 3.524947 0.606948 -8.384648 -1.499858 0.939227 
-0.391175 53.373856 0.070832 0.000000 0.000000 0.000000 -0.538496 0.279829 -12.356360 0.000000 0.000000 29.912905 0.000000 0.000000 0.000000 -0.234230 12.733522 -5.909410 7.279783 -0.062786 0.407082 -61.121559 -35.951599 -3.325402 -29.852955 5.154230 -18.111856 3.358998 19.852402 18.675367 -0.271527 0.172918 -0.661055 70.142136 50.962234 17.496231 8.935503 2.531125 -5.352401 5.151025 -19.673820 2.446080 -6.410691 4.009417 0.357127 16.275297 -3.189098 -0.897946 -9.168676 0.950642 -0.840436 -6.720841 -4.499939 0.166021 16.235565 3.610410 0.600956 -8.264592 -1.473942 0.940280 
-0.423146 53.363667 0.051641 0.000000 0.000000 0.000000 1.124625 0.473938 -11.873634 0.000000 0.000000 29.517147 0.000000 0.000000 0.000000 0.107365 5.253979 -5.286512 7.206719 -0.764548 0.355990 -69.620110 -29.319681 -0.229253 -37.523655 5.986901 -17.823210 -3.772724 21.965889 15.455225 -0.359169 1.328739 -0.736336 72.943405 43.877884 14.604544 12.499044 5.148867 -8.824782 13.487775 -18.156017 -1.502648 -6.103415 4.007178 0.418743 16.363480 -3.149450 -0.919540 -9.304098 0.926478 -0.827706 -6.460119 -4.553270 0.187035 16.358923 3.697748 0.595168 -8.137089 -1.446419 0.941397 
-0.452224 53.354397 0.034185 0.000000 0.000000 0.000000 2.529951 0.632466 -8.024741 0.000000 0.000000 28.279985 0.000000 0.000000 0.000000 0.248008 -0.819329 -0.577172 7.151936 -1.238987 0.321377 -75.966476 -19.593531 5.354416 -45.205471 6.575148 -17.092680 -11.026433 23.667597 11.838021 -0.708210 2.388523 -0.778504 72.814667 33.731262 10.734329 17.067636 11.112442 -12.933853 18.407427 -15.281879 -4.596764 -5.831735 4.005191 0.473208 16.441065 -3.114395 -0.938602 -9.423584 0.905141 -0.816453 -6.192252 -4.608062 0.208626 16.480654 3.783006 0.589974 -8.006091 -1.418141 0.942546 
-0.477771 53.346252 0.018849 0.000000 0.000000 0.000000 3.457912 0.734946 0.169392 0.000000 0.000000 26.105547 0.000000 0.000000 0.000000 0.024993 -4.098022 9.497997 7.130358 -1.413310 0.308641 -75.848206 -6.037237 10.735462 -52.671555 6.270013 -15.983587 -17.624050 24.640331 8.152648 -1.364165 3.293383 -0.780208 69.632904 20.412432 5.944370 22.675781 21.416632 -17.672644 13.942398 -12.267573 -5.179303 -5.617480 4.003618 0.516147 16.501886 -3.086752 -0.953606 -9.517576 0.888341 -0.807583 -5.925322 -4.662661 0.230141 16.595537 3.862231 0.585762 -7.875554 -1.389962 0.943690 
-0.499143 53.339443 0.006020 0.000000 0.000000 0.000000 3.773236 0.769563 12.263931 0.000000 0.000000 22.897982 0.000000 0.000000 0.000000 -0.641778 -3.759595 24.680862 7.130358 -1.413310 0.308641 -66.824089 10.645309 13.870503 -59.695030 4.422534 -14.559249 -22.787483 24.566893 4.728004 -2.352015 3.998503 -0.736828 63.725914 4.793470 0.720264 29.210089 36.360634 -22.922190 -3.678318 -10.071573 -2.169721 -5.482479 4.002620 0.543189 16.539774 -3.069335 -0.963025 -9.576515 0.877787 -0.801998 -5.667414 -4.715415 0.250929 16.698355 3.931468 0.582922 -7.749429 -1.362736 0.944796 
-0.515696 53.334167 -0.003915 0.000000 0.000000 0.000000 3.677833 0.759090 22.118654 0.000000 0.000000 18.561415 0.000000 0.000000 0.000000 -1.501975 -1.244964 38.562950 7.130358 -1.413310 0.308641 -53.937943 23.990852 15.303186 -66.049034 0.383744 -12.882976 -25.738642 23.130077 1.892982 -3.614589 4.515337 -0.654673 57.224815 -8.325492 -2.745145 35.965588 53.461300 -28.115559 -29.439209 -8.621545 3.206765 -5.448560 4.002356 0.549957 16.548561 -3.064961 -0.965333 -9.590843 0.875189 -0.800601 -5.426611 -4.764671 0.270338 16.783886 3.986763 0.581842 -7.631669 -1.337316 0.945828 
